<svg width="40" height="40" viewBox="0 0 40 40" fill="none" xmlns="http://www.w3.org/2000/svg">
<path d="M20 39.9999C29.9411 39.9999 38 31.9411 38 22C38 12.0589 29.9411 4 20 4C10.0589 4 2 12.0589 2 22C2 31.9411 10.0589 39.9999 20 39.9999Z" fill="#D0E3FF"/>
<path d="M9.17188 1.31674e-05L0 9.17188L2.82814 12L12 2.82815L9.17188 1.31674e-05Z" fill="#0048AD"/>
<path d="M30.8281 0.000228617L28 2.82837L37.1719 12.0002L40 9.17209L30.8281 0.000228617Z" fill="#0048AD"/>
<path d="M24.2432 29.0704L18.586 23.414C18.4002 23.2284 18.2528 23.0079 18.1523 22.7653C18.0517 22.5227 18 22.2626 18 22V14H22V21.1718L27.0712 26.2422L24.2432 29.0704Z" fill="#0048AD"/>
</svg>
