<svg width="32" height="32" viewBox="0 0 32 32" fill="none" xmlns="http://www.w3.org/2000/svg">
<path d="M16 10C15.7348 10 15.4804 9.89464 15.2929 9.70711C15.1054 9.51957 15 9.26522 15 9V5C15 4.73478 15.1054 4.48043 15.2929 4.29289C15.4804 4.10536 15.7348 4 16 4C16.2652 4 16.5196 4.10536 16.7071 4.29289C16.8946 4.48043 17 4.73478 17 5V9C17 9.26522 16.8946 9.51957 16.7071 9.70711C16.5196 9.89464 16.2652 10 16 10Z" fill="#ABCEFF"/>
<path d="M22 0H16C15.7348 0 15.4804 0.105357 15.2929 0.292893C15.1054 0.48043 15 0.734784 15 1V6H22C22.2652 6 22.5196 5.89464 22.7071 5.70711C22.8946 5.51957 23 5.26522 23 5V1C23 0.734784 22.8946 0.48043 22.7071 0.292893C22.5196 0.105357 22.2652 0 22 0Z" fill="#0048AD"/>
<path d="M30 16H22C21.4477 16 21 16.4477 21 17V31C21 31.5523 21.4477 32 22 32H30C30.5523 32 31 31.5523 31 31V17C31 16.4477 30.5523 16 30 16Z" fill="#ABCEFF"/>
<path d="M28 22H26C25.7348 22 25.4804 21.8946 25.2929 21.7071C25.1054 21.5196 25 21.2652 25 21C25 20.7348 25.1054 20.4804 25.2929 20.2929C25.4804 20.1054 25.7348 20 26 20H28C28.2652 20 28.5196 20.1054 28.7071 20.2929C28.8946 20.4804 29 20.7348 29 21C29 21.2652 28.8946 21.5196 28.7071 21.7071C28.5196 21.8946 28.2652 22 28 22Z" fill="#D0E3FF"/>
<path d="M28 25H26C25.7348 25 25.4804 24.8946 25.2929 24.7071C25.1054 24.5196 25 24.2652 25 24C25 23.7348 25.1054 23.4804 25.2929 23.2929C25.4804 23.1054 25.7348 23 26 23H28C28.2652 23 28.5196 23.1054 28.7071 23.2929C28.8946 23.4804 29 23.7348 29 24C29 24.2652 28.8946 24.5196 28.7071 24.7071C28.5196 24.8946 28.2652 25 28 25Z" fill="#D0E3FF"/>
<path d="M28 28H26C25.7348 28 25.4804 27.8946 25.2929 27.7071C25.1054 27.5196 25 27.2652 25 27C25 26.7348 25.1054 26.4804 25.2929 26.2929C25.4804 26.1054 25.7348 26 26 26H28C28.2652 26 28.5196 26.1054 28.7071 26.2929C28.8946 26.4804 29 26.7348 29 27C29 27.2652 28.8946 27.5196 28.7071 27.7071C28.5196 27.8946 28.2652 28 28 28Z" fill="#D0E3FF"/>
<path d="M10 16H2C1.44772 16 1 16.4477 1 17V31C1 31.5523 1.44772 32 2 32H10C10.5523 32 11 31.5523 11 31V17C11 16.4477 10.5523 16 10 16Z" fill="#ABCEFF"/>
<path d="M13 18H1C0.734784 18 0.48043 17.8946 0.292893 17.7071C0.105357 17.5196 0 17.2652 0 17C0 16.7348 0.105357 16.4804 0.292893 16.2929C0.48043 16.1054 0.734784 16 1 16H13C13.2652 16 13.5196 16.1054 13.7071 16.2929C13.8946 16.4804 14 16.7348 14 17C14 17.2652 13.8946 17.5196 13.7071 17.7071C13.5196 17.8946 13.2652 18 13 18Z" fill="#D0E3FF"/>
<path d="M19 18H31C31.2652 18 31.5196 17.8946 31.7071 17.7071C31.8946 17.5196 32 17.2652 32 17C32 16.7348 31.8946 16.4804 31.7071 16.2929C31.5196 16.1054 31.2652 16 31 16H19C18.7348 16 18.4804 16.1054 18.2929 16.2929C18.1054 16.4804 18 16.7348 18 17C18 17.2652 18.1054 17.5196 18.2929 17.7071C18.4804 17.8946 18.7348 18 19 18Z" fill="#D0E3FF"/>
<path d="M6 22H4C3.73478 22 3.48043 21.8946 3.29289 21.7071C3.10536 21.5196 3 21.2652 3 21C3 20.7348 3.10536 20.4804 3.29289 20.2929C3.48043 20.1054 3.73478 20 4 20H6C6.26522 20 6.51957 20.1054 6.70711 20.2929C6.89464 20.4804 7 20.7348 7 21C7 21.2652 6.89464 21.5196 6.70711 21.7071C6.51957 21.8946 6.26522 22 6 22Z" fill="#D0E3FF"/>
<path d="M6 25H4C3.73478 25 3.48043 24.8946 3.29289 24.7071C3.10536 24.5196 3 24.2652 3 24C3 23.7348 3.10536 23.4804 3.29289 23.2929C3.48043 23.1054 3.73478 23 4 23H6C6.26522 23 6.51957 23.1054 6.70711 23.2929C6.89464 23.4804 7 23.7348 7 24C7 24.2652 6.89464 24.5196 6.70711 24.7071C6.51957 24.8946 6.26522 25 6 25Z" fill="#D0E3FF"/>
<path d="M6 28H4C3.73478 28 3.48043 27.8946 3.29289 27.7071C3.10536 27.5196 3 27.2652 3 27C3 26.7348 3.10536 26.4804 3.29289 26.2929C3.48043 26.1054 3.73478 26 4 26H6C6.26522 26 6.51957 26.1054 6.70711 26.2929C6.89464 26.4804 7 26.7348 7 27C7 27.2652 6.89464 27.5196 6.70711 27.7071C6.51957 27.8946 6.26522 28 6 28Z" fill="#D0E3FF"/>
<path d="M22.5547 12.168L16.5547 8.16797C16.3906 8.05814 16.1975 7.99951 16 7.99951C15.8025 7.99951 15.6094 8.05814 15.4453 8.16797L9.4453 12.168C9.30833 12.2593 9.19602 12.383 9.11834 12.5281C9.04066 12.6733 9.00001 12.8353 9 13V31C9 31.2652 9.10536 31.5195 9.29289 31.7071C9.48043 31.8946 9.73478 32 10 32H22C22.2652 32 22.5196 31.8946 22.7071 31.7071C22.8946 31.5195 23 31.2652 23 31V13C23 12.8353 22.9593 12.6733 22.8817 12.5281C22.804 12.383 22.6917 12.2593 22.5547 12.168Z" fill="#0048AD"/>
<path d="M18 24H14C13.4477 24 13 24.4477 13 25V31C13 31.5523 13.4477 32 14 32H18C18.5523 32 19 31.5523 19 31V25C19 24.4477 18.5523 24 18 24Z" fill="#ABCEFF"/>
<path d="M18 22H14C13.7348 22 13.4804 21.8946 13.2929 21.7071C13.1054 21.5196 13 21.2652 13 21C13 20.7348 13.1054 20.4804 13.2929 20.2929C13.4804 20.1054 13.7348 20 14 20H18C18.2652 20 18.5196 20.1054 18.7071 20.2929C18.8946 20.4804 19 20.7348 19 21C19 21.2652 18.8946 21.5196 18.7071 21.7071C18.5196 21.8946 18.2652 22 18 22Z" fill="#ABCEFF"/>
<path d="M18 19H14C13.7348 19 13.4804 18.8946 13.2929 18.7071C13.1054 18.5196 13 18.2652 13 18C13 17.7348 13.1054 17.4804 13.2929 17.2929C13.4804 17.1054 13.7348 17 14 17H18C18.2652 17 18.5196 17.1054 18.7071 17.2929C18.8946 17.4804 19 17.7348 19 18C19 18.2652 18.8946 18.5196 18.7071 18.7071C18.5196 18.8946 18.2652 19 18 19Z" fill="#ABCEFF"/>
<path d="M18 16H14C13.7348 16 13.4804 15.8946 13.2929 15.7071C13.1054 15.5196 13 15.2652 13 15C13 14.7348 13.1054 14.4804 13.2929 14.2929C13.4804 14.1054 13.7348 14 14 14H18C18.2652 14 18.5196 14.1054 18.7071 14.2929C18.8946 14.4804 19 14.7348 19 15C19 15.2652 18.8946 15.5196 18.7071 15.7071C18.5196 15.8946 18.2652 16 18 16Z" fill="#ABCEFF"/>
<path d="M31 30H1C0.734784 30 0.48043 30.1054 0.292893 30.2929C0.105357 30.4804 0 30.7348 0 31C0 31.2652 0.105357 31.5196 0.292893 31.7071C0.48043 31.8946 0.734784 32 1 32H31C31.2652 32 31.5196 31.8946 31.7071 31.7071C31.8946 31.5196 32 31.2652 32 31C32 30.7348 31.8946 30.4804 31.7071 30.2929C31.5196 30.1054 31.2652 30 31 30Z" fill="#D0E3FF"/>
</svg>
