<svg width="16" height="16" viewBox="0 0 16 16" fill="none" xmlns="http://www.w3.org/2000/svg">
<path d="M16 1.00077V9.00692C16 9.27234 15.8946 9.52689 15.7069 9.71457C15.5192 9.90225 15.2647 10.0077 14.9992 10.0077C14.7338 10.0077 14.4793 9.90225 14.2916 9.71457C14.1039 9.52689 13.9985 9.27234 13.9985 9.00692V3.41672L1.69601 15.7191C1.50727 15.9014 1.25447 16.0022 0.992073 16C0.729674 15.9977 0.478669 15.8924 0.293119 15.7069C0.107568 15.5213 0.002318 15.2703 3.78315e-05 15.0079C-0.00224234 14.7455 0.0986299 14.4927 0.280928 14.304L12.5833 2.00154H6.99308C6.72766 2.00154 6.47311 1.8961 6.28543 1.70842C6.09775 1.52074 5.99231 1.26619 5.99231 1.00077C5.99231 0.735348 6.09775 0.480799 6.28543 0.293119C6.47311 0.105438 6.72766 0 6.99308 0H14.9992C15.2644 0.00097554 15.5183 0.106727 15.7058 0.294196C15.8933 0.481665 15.999 0.735649 16 1.00077Z" fill="white"/>
</svg>
