<svg width="24" height="25" viewBox="0 0 24 25" fill="none" xmlns="http://www.w3.org/2000/svg">
<path d="M8.75 18.5C8.72828 18.5 8.71013 18.4834 8.70771 18.4618C8.35901 15.3563 5.89373 12.891 2.78816 12.5423C2.76657 12.5399 2.75 12.5217 2.75 12.5C2.75 12.4783 2.76657 12.4601 2.78816 12.4577C5.89373 12.109 8.35901 9.64373 8.70771 6.53816C8.71013 6.51657 8.72828 6.5 8.75 6.5C8.77172 6.5 8.78987 6.51657 8.79229 6.53816C9.14099 9.64373 11.6063 12.109 14.7118 12.4577C14.7334 12.4601 14.75 12.4783 14.75 12.5C14.75 12.5217 14.7334 12.5399 14.7118 12.5423C11.6063 12.891 9.14099 15.3563 8.79229 18.4618C8.78987 18.4834 8.77172 18.5 8.75 18.5Z" fill="black"/>
<path d="M18.25 9.25C18.2391 9.25 18.2301 9.24171 18.2289 9.23092C18.0545 7.67814 16.8219 6.4455 15.2691 6.27115C15.2583 6.26994 15.25 6.26086 15.25 6.25C15.25 6.23914 15.2583 6.23007 15.2691 6.22885C16.8219 6.0545 18.0545 4.82186 18.2289 3.26908C18.2301 3.25829 18.2391 3.25 18.25 3.25C18.2609 3.25 18.2699 3.25829 18.2711 3.26908C18.4455 4.82186 19.6781 6.0545 21.2309 6.22885C21.2417 6.23007 21.25 6.23914 21.25 6.25C21.25 6.26086 21.2417 6.26994 21.2309 6.27115C19.6781 6.4455 18.4455 7.67814 18.2711 9.23092C18.2699 9.24171 18.2609 9.25 18.25 9.25Z" fill="black"/>
<path d="M18.25 21.75C18.2391 21.75 18.2301 21.7417 18.2289 21.7309C18.0545 20.1781 16.8219 18.9455 15.2691 18.7711C15.2583 18.7699 15.25 18.7609 15.25 18.75C15.25 18.7391 15.2583 18.7301 15.2691 18.7289C16.8219 18.5545 18.0545 17.3219 18.2289 15.7691C18.2301 15.7583 18.2391 15.75 18.25 15.75C18.2609 15.75 18.2699 15.7583 18.2711 15.7691C18.4455 17.3219 19.6781 18.5545 21.2309 18.7289C21.2417 18.7301 21.25 18.7391 21.25 18.75C21.25 18.7609 21.2417 18.7699 21.2309 18.7711C19.6781 18.9455 18.4455 20.1781 18.2711 21.7309C18.2699 21.7417 18.2609 21.75 18.25 21.75Z" fill="black"/>
</svg>
